# xmcd CD database file
#
# Track frame offsets:
#	150
#	37262
#	63764
#	71201
#	95236
#	104513
#	124842
#	139689
#	180076
#	218383
#	229660
#	242832
#	254739
#	280747
#
# Disc length: 3906 seconds
#
# Revision: 0
# Processed by: cddbd v1.5.1PL0 Copyright (c) Steve Scherf et al.
# Submitted via: CDex 1.51
#
DISCID=d00f400e
DTITLE=Betty Carter - Round Midnight
DYEAR=1970
DGENRE=Jazz
TTITLE0=Seems like old times
TTITLE1='Round midnight
TTITLE2=By the bend in the river
TTITLE3=The sun died
TTITLE4=Blue moon
TTITLE5=I'm pulling trough
TTITLE6=Ego
TTITLE7=Body and soul
TTITLE8=Surrey with the fringe on top
TTITLE9=I only have eyes for you
TTITLE10=Do something
TTITLE11=My shining hour
TTITLE12=Everytime we say goodbye
TTITLE13=What's new
EXTD=YEAR: 1970
EXTT0=
EXTT1=
EXTT2=
EXTT3=
EXTT4=
EXTT5=
EXTT6=
EXTT7=
EXTT8=
EXTT9=
EXTT10=
EXTT11=
EXTT12=
EXTT13=
PLAYORDER=
